<?xml version="1.0" encoding="utf-8"?>
<!-- Generator: Adobe Illustrator 23.0.6, SVG Export Plug-In . SVG Version: 6.00 Build 0)  -->
<svg version="1.1" id="Lager_1" xmlns="http://www.w3.org/2000/svg" xmlns:xlink="http://www.w3.org/1999/xlink" x="0px" y="0px"
	 viewBox="0 0 1310 370" style="enable-background:new 0 0 1310 370;" xml:space="preserve">
<g>
	<path d="M170,6.5h63v350h-63v-36h-9c-11,28.7-34.7,43-71,43c-12.3,0-23.8-2-34.5-6c-10.7-4-20-10.2-28-18.5
		c-8-8.3-14.2-18.8-18.8-31.2S2,280.5,2,263.5V6.5h63v244c0,17.7,4.2,31.4,12.5,41.2c8.3,9.8,20.8,14.8,37.5,14.8
		c19,0,32.9-6.1,41.8-18.2c8.8-12.2,13.2-28.8,13.2-49.8V6.5z"/>
	<path d="M481,356.5h-66v-105c0-8-2.1-14.5-6.2-19.5c-4.2-5-11.1-7.5-20.8-7.5h-76v132h-66V6.5h134c18,0,33.8,2.5,47.5,7.5
		c13.7,5,25.1,11.9,34.2,20.8c9.2,8.8,16.2,19.1,21,30.8c4.8,11.7,7.2,24.2,7.2,37.5v12c0,14.3-3.8,27.8-11.5,40.2
		c-7.7,12.5-19.5,22.1-35.5,28.8v9c11.7,1.3,20.9,5.8,27.8,13.5c6.8,7.7,10.2,17.3,10.2,29V356.5z M312,161.5h63
		c16,0,28.2-3.8,36.5-11.2c8.3-7.5,12.5-18.1,12.5-31.8v-6c0-11.7-4.2-21.8-12.5-30.2c-8.3-8.5-20.5-12.8-36.5-12.8h-63V161.5z"/>
	<path d="M497,293.5h33v-224h-33v-63h153.5c16.7,0,31.4,2.3,44.2,7c12.8,4.7,23.7,11,32.5,19c8.8,8,15.5,17.6,20,28.8
		c4.5,11.2,6.8,23.2,6.8,36.2v6c0,20-5.6,36-16.8,48c-11.2,12-25.2,20.3-42.2,25v9c17,4.7,31.1,13.1,42.2,25.2
		C748.4,222.9,754,239,754,259v6c0,13-2.2,25.1-6.8,36.2c-4.5,11.2-11.2,20.8-20,29c-8.8,8.2-19.7,14.6-32.5,19.2
		c-12.8,4.7-27.6,7-44.2,7H497V293.5z M596,149.5h48c14,0,25.3-2.9,34-8.8c8.7-5.8,13-15.8,13-29.8v-3c0-14-4.3-23.9-13-29.8
		c-8.7-5.8-20-8.8-34-8.8h-48V149.5z M596,293.5h48c14,0,25.3-3,34-9c8.7-6,13-16,13-30v-3c0-14-4.3-24-13-30c-8.7-6-20-9-34-9h-48
		V293.5z"/>
	<path d="M959.3,281.5h-119l-17,75h-69l83.5-350h124l83.5,350h-69L959.3,281.5z M854.3,218.5h90.5l-40.5-179h-9L854.3,218.5z"/>
	<path d="M1233,323.5h9V6.5h66v350h-129l-41-317h-9v317h-66V6.5h129L1233,323.5z"/>
</g>
</svg>
