<?xml version="1.0" encoding="utf-8"?>
<!-- Generator: Adobe Illustrator 23.0.6, SVG Export Plug-In . SVG Version: 6.00 Build 0)  -->
<svg version="1.1" id="Lager_1" xmlns="http://www.w3.org/2000/svg" xmlns:xlink="http://www.w3.org/1999/xlink" x="0px" y="0px"
	 viewBox="0 0 100 100" style="enable-background:new 0 0 100 100;" xml:space="preserve">
<path d="M62.9,5h15.9v88.2H62.9v-9.1h-2.3C57.8,91.4,51.8,95,42.7,95c-3.1,0-6-0.5-8.7-1.5c-2.7-1-5-2.6-7.1-4.7
	c-2-2.1-3.6-4.7-4.7-7.9c-1.2-3.1-1.7-6.9-1.7-11.2V5h15.9v61.5c0,4.5,1.1,7.9,3.2,10.4c2.1,2.5,5.2,3.7,9.5,3.7
	c4.8,0,8.3-1.5,10.5-4.6c2.2-3.1,3.3-7.3,3.3-12.6V5z"/>
</svg>
